<svg width="588" height="599" viewBox="0 0 588 599" fill="none" xmlns="http://www.w3.org/2000/svg">
<g clip-path="url(#clip0_2445_27)">
<path d="M549.791 331.3C548.901 344.64 544.021 355.04 541.061 367.61C538.371 379.03 534.391 391.61 531.951 402C531.561 404.31 532.201 406.88 531.561 409.06C531.181 410.6 516.041 429.59 513.471 434.47C508.211 444.35 505.131 456.54 500.511 466.55C498.711 470.53 491.661 477.58 493.451 480.53C498.331 488.1 503.841 482.33 511.541 483.49C514.751 484 516.931 486.82 520.521 486.57C513.311 491.41 511.351 488.31 506.411 493.64C504.751 495.44 500.301 497.97 499.211 502.14C498.771 503.82 496.721 509.6 495.491 510.84C495.241 509.81 482.281 496.86 480.611 495.7C472.531 490.18 467.011 494.29 460.461 499.42C441.341 514.82 416.061 526.88 393.351 537.28C386.031 540.62 375.641 543.06 369.351 546.26C367.171 547.28 365.891 549.72 364.351 550.24C361.461 551.08 358.331 551.77 355.051 552.33C354.351 552.45 353.651 552.56 352.941 552.67C352.421 552.75 351.911 552.84 351.381 552.91C349.821 553.14 348.231 553.35 346.631 553.56C346.321 553.6 346.011 553.63 345.701 553.67C343.821 553.9 341.911 554.11 340.021 554.31C339.981 554.31 339.931 554.32 339.891 554.32C338.511 554.47 337.141 554.61 335.771 554.75C335.691 554.76 335.601 554.77 335.521 554.77C334.801 554.85 334.071 554.92 333.361 555C332.641 555.07 331.931 555.15 331.221 555.23C330.431 555.32 329.641 555.4 328.861 555.49C328.411 555.54 327.961 555.59 327.521 555.64C325.301 555.9 323.151 556.19 321.101 556.51C311.861 557.92 305.311 561.77 295.441 561C273.751 559.33 246.291 554.45 225.371 547.14C200.731 538.54 171.611 526.23 151.591 510.06C149.021 507.88 146.841 504.67 144.151 502.49C136.711 496.46 128.631 490.94 121.441 484.65C109.761 489.4 106.301 496.84 107.451 509.29C107.921 514.12 108.791 517.1 110.721 519.85C103.281 512.41 102.201 512.55 98.1412 505.51C95.9212 501.66 96.7712 499.92 93.6812 496.74C88.7212 491.64 87.5212 493.46 83.4212 489.36C83.4212 489.36 83.3812 489.32 83.3012 489.24C84.6712 489.53 86.1912 489.34 87.9612 488.46C88.7312 488.07 100.281 476.53 100.661 475.76C106.311 464.6 92.7012 460.24 88.6012 453.3C74.6212 430.07 59.7312 405.31 52.1612 378.75C46.0012 357.19 42.9212 336.66 39.8412 314.72C39.4612 312.28 37.4012 311.51 37.0212 309.97C35.2212 303.94 41.7712 274.04 42.8012 265.19C43.1812 260.82 42.1512 256.21 43.0512 251.97C43.9512 248.38 50.6212 232.08 52.5412 226.95C64.3512 196.28 81.9312 167.92 95.5312 138.02C96.9412 134.94 103.361 131.22 104.131 128.65C105.541 123.77 101.691 122.23 98.9912 119.03C98.2212 118.26 98.0912 116.34 98.0912 116.34L97.8412 116.21C96.6812 114.8 91.9312 117.24 90.0112 117.24C86.2912 116.98 82.8312 115.44 77.8212 116.08C75.1612 116.41 72.3312 117.67 69.5912 119.41C78.1112 107.24 87.2612 106.1 87.2612 106.1C87.2612 106.1 91.3712 105.35 93.2912 105.82C95.8012 106.43 97.2112 105.8 97.9812 103.33C98.3812 102.03 99.2212 100.51 99.2212 100.51C99.2212 100.51 102.221 99.2096 103.461 93.8796C106.061 97.8496 113.691 102.64 115.421 105.99C116.191 107.66 116.061 110.23 116.191 110.48C117.991 112.92 130.171 103.42 132.741 102.27C149.291 94.6996 161.991 88.5396 178.161 80.1996C209.211 64.1596 226.021 59.4096 260.541 54.6596C270.801 53.2496 273.241 47.9896 286.461 48.8796C316.611 51.0596 353.441 55.1696 382.051 65.8196C394.881 70.5696 408.101 78.1296 420.551 84.1696C428.121 87.7596 443.011 98.0196 448.521 99.6896C450.701 100.21 452.761 99.4396 455.071 100.59C458.661 102.39 460.331 109.44 466.231 108.93C472.131 108.41 481.501 99.4396 485.091 94.6896C485.121 94.6496 485.151 94.6196 485.171 94.5796C485.981 93.5196 486.531 92.6496 486.881 91.8996C487.501 90.5796 487.481 89.6996 487.101 89.0096C491.231 92.0096 488.771 93.5496 489.731 96.3496C490.711 99.2196 492.771 99.0796 494.431 99.4996C496.251 99.9496 496.941 101.37 500.001 100.87C501.481 100.63 504.411 101.79 510.191 107.2C507.771 106.68 505.211 106.7 503.061 107.78C499.081 113.94 489.201 116.89 488.171 124.33C486.631 134.98 492.791 133.82 493.951 138.06C494.471 140.11 493.821 142.68 494.471 144.99C496.521 153.46 508.451 165.39 513.461 173.99C524.241 192.21 542.841 231.09 545.151 251.75C545.671 256.63 544.771 262.01 545.151 266.76C546.311 280.62 549.131 293.19 549.771 307.18C550.161 314.5 550.291 323.99 549.771 331.3H549.791Z" fill="#242021"/>
<path d="M104.151 128.66C103.381 131.23 96.9613 134.95 95.5513 138.03C81.9513 167.93 64.3713 196.29 52.5613 226.96C50.6413 232.09 43.9613 248.39 43.0713 251.98C42.1713 256.22 43.2013 260.83 42.8213 265.2C41.7913 274.05 35.2513 303.95 37.0413 309.98C37.4213 311.52 39.4813 312.29 39.8613 314.73C42.9413 336.68 46.0213 357.2 52.1813 378.76C59.7513 405.32 74.6413 430.08 88.6213 453.31C92.7313 460.24 106.331 464.6 100.681 475.77C100.301 476.54 88.7513 488.08 87.9813 488.47C86.2113 489.36 84.6913 489.54 83.3213 489.25C77.9613 488.1 75.1113 479.48 69.8913 476.41C67.8313 475.13 66.0413 477.95 63.8613 476.54C49.8813 468.07 24.0813 419.05 19.2113 402.63C8.82131 366.96 -2.60866 307.55 0.731335 271.11C1.12134 267.13 3.30129 265.21 3.81129 262.13C4.46129 257.9 3.43129 253.15 3.81129 248.66C7.54129 211.58 24.8613 185.4 42.9513 154.48C47.8313 146.27 51.1613 138.05 57.5813 130.23C60.4913 126.75 64.9413 122.4 69.6213 119.45C72.3713 117.71 75.1913 116.45 77.8513 116.12C82.8613 115.48 86.3213 117.02 90.0413 117.28C91.9713 117.28 96.7113 114.84 97.8713 116.25L98.1213 116.38C98.1213 116.38 98.2513 118.3 99.0213 119.07C101.721 122.28 105.571 123.82 104.161 128.69L104.151 128.66Z" fill="#EFDDBE"/>
<path d="M486.912 91.9098C486.572 92.6598 486.012 93.5298 485.202 94.5898C485.182 94.6298 485.151 94.6598 485.121 94.6998C481.531 99.4498 472.162 108.43 466.262 108.94C460.352 109.45 458.691 102.39 455.101 100.6C452.791 99.4498 450.732 100.22 448.552 99.6998C443.032 98.0298 428.141 87.7698 420.581 84.1798C408.131 78.1498 394.921 70.5798 382.081 65.8298C353.471 55.1798 316.641 51.0698 286.491 48.8898C273.271 47.9898 270.832 53.2598 260.572 54.6698C226.052 59.4198 209.241 64.1598 178.191 80.2098C162.021 88.5498 149.322 94.7098 132.772 102.28C130.202 103.44 118.022 112.93 116.222 110.49C116.092 110.23 116.222 107.66 115.452 106C113.722 102.66 106.091 97.8598 103.491 93.8898C103.001 93.1398 102.681 92.4198 102.621 91.7498C102.231 87.8998 108.652 82.2598 111.732 79.8198C137.912 58.9098 182.042 32.4798 214.642 25.4198C217.202 24.8998 219.642 25.4198 221.702 25.0298C237.872 21.6898 259.812 15.7898 275.592 14.5098C288.682 13.4898 302.922 15.1598 316.272 14.5098C319.352 14.5098 321.791 12.7198 325.251 12.8398C331.801 13.0998 339.112 17.5898 345.012 18.6198C369.262 22.9898 387.741 30.5498 410.971 38.1298C417.131 40.1798 425.721 40.8198 431.251 43.2598C448.951 50.9598 463.971 60.0698 478.851 72.1298C479.621 72.7698 481.162 72.6398 481.552 73.0298H481.932C482.702 73.9298 481.552 81.2398 482.322 83.9298C483.182 86.8198 486.222 87.3298 487.142 89.0198C487.522 89.7198 487.532 90.5998 486.922 91.9198L486.912 91.9098Z" fill="#EFDDBE"/>
<path d="M582.511 358.24C582.261 362.86 583.541 370.81 582.511 374.66C581.741 377.62 570.581 378.64 568.401 383C565.581 388.52 570.331 402.89 569.171 410.71C568.791 413.15 564.811 421.49 563.521 424.57C558.641 435.6 548.251 454.46 540.681 463.19C537.471 466.91 533.751 469.48 531.061 472.94C528.621 476.15 524.511 486.15 520.541 486.54C516.951 486.79 514.761 483.97 511.561 483.46C503.861 482.3 498.351 488.08 493.471 480.5C491.671 477.55 498.731 470.49 500.531 466.52C505.151 456.51 508.231 444.32 513.491 434.44C516.061 429.56 531.201 410.57 531.581 409.03C532.221 406.85 531.581 404.28 531.971 401.97C534.411 391.58 538.391 379 541.081 367.58C544.041 355.01 548.911 344.61 549.811 331.27C550.331 323.95 550.201 314.46 549.811 307.15C549.171 293.17 546.351 280.59 545.191 266.73C544.811 261.98 545.711 256.59 545.191 251.72C542.881 231.06 524.271 192.18 513.501 173.96C508.491 165.36 496.561 153.42 494.511 144.96C493.861 142.65 494.511 140.08 493.991 138.03C492.841 133.79 486.671 134.95 488.211 124.3C489.241 116.86 499.121 113.91 503.101 107.75C505.251 106.67 507.811 106.65 510.231 107.17H510.241C511.871 107.51 513.431 108.11 514.771 108.77V109.02C517.211 113.9 521.441 118.39 523.751 123.26C526.831 129.81 537.351 150.97 538.761 156.11C539.661 159.45 537.991 168.55 542.871 169.97C548.651 171.64 549.031 168.04 554.671 174.72C563.271 184.86 573.021 217.45 576.231 231.18C581.621 255.3 590.601 298.67 587.141 322.28C586.751 324.85 583.161 349.22 582.521 358.21L582.511 358.24Z" fill="#EFDDBE"/>
<path d="M495.511 510.83C495.261 509.8 482.301 496.85 480.631 495.69C472.551 490.17 467.031 494.28 460.481 499.41C441.361 514.81 416.081 526.87 393.371 537.27C386.051 540.61 375.661 543.05 369.371 546.25C367.191 547.27 365.911 549.71 364.371 550.23C361.481 551.07 358.351 551.76 355.071 552.32C354.371 552.44 353.671 552.56 352.961 552.66C352.441 552.74 351.931 552.83 351.401 552.9C349.841 553.13 348.251 553.35 346.651 553.55C346.341 553.59 346.031 553.62 345.721 553.66C343.841 553.89 341.931 554.1 340.041 554.3C340.001 554.3 339.951 554.31 339.911 554.31C338.531 554.46 337.161 554.6 335.791 554.74C335.711 554.75 335.621 554.76 335.541 554.76C334.821 554.84 334.091 554.91 333.381 554.99C332.671 555.06 331.951 555.14 331.241 555.22C330.451 555.31 329.661 555.39 328.881 555.48C328.431 555.53 327.981 555.58 327.541 555.63C325.321 555.89 323.171 556.18 321.121 556.5C311.881 557.91 305.331 561.76 295.461 560.99C273.771 559.32 246.311 554.44 225.391 547.13C200.751 538.53 171.631 526.22 151.611 510.05C149.041 507.87 146.861 504.66 144.171 502.48C136.731 496.45 128.651 490.93 121.461 484.64C109.781 489.39 106.321 496.83 107.471 509.28C107.941 514.11 108.811 517.09 110.741 519.84C111.931 521.54 113.521 523.15 115.681 525.06C122.871 531.48 139.291 542.9 147.891 546.88C155.591 550.47 154.181 551.24 157.901 553.68C161.621 556.12 170.861 560.61 175.351 562.92C179.841 565.23 189.341 566.77 192.931 569.34C193.961 570.11 196.271 575.76 197.421 574.6C197.681 574.21 197.941 569.85 200.381 567.8C201.411 567.02 207.571 564.07 208.461 564.2C212.311 565.1 212.691 572.28 214.111 575.11C215.131 577.04 216.931 577.94 217.571 579.09C218.861 581.4 217.701 585.51 220.781 586.41C228.101 588.47 237.211 588.34 244.651 591.03C260.561 591.67 274.681 599.88 290.971 598.6C295.851 598.21 302.651 596.03 307.531 595.65C313.301 595.26 319.721 596.29 325.491 595.65C330.631 595.13 336.911 591.92 342.051 591.28C346.021 590.9 350.131 591.79 353.981 591.28C390.421 586.4 429.561 561.39 462.281 545.22C464.591 544.06 467.671 543.94 470.111 542.65C473.191 540.98 486.661 529.44 489.361 526.74V526.23C490.901 524.56 489.871 521.22 490.771 519.43C492.311 516.1 496.551 514.55 495.521 510.83H495.511ZM367.571 564.21C366.031 563.83 365.391 562.16 364.371 561.39C362.821 560.36 360.641 559.97 360.641 559.97V559.85C359.361 558.95 362.821 554.59 364.621 554.07C366.551 553.55 371.421 553.55 373.471 553.81C380.911 554.84 376.941 567.02 367.571 564.2V564.21ZM398.111 552.53C397.211 553.43 391.561 553.43 390.671 552.53C387.591 549.45 395.551 543.93 398.111 546.5C398.371 546.76 398.241 552.28 398.111 552.53Z" fill="#EFDDBE"/>
<path d="M436.962 473.93C413.222 493.18 387.682 509.35 357.922 517.81C345.342 521.41 326.092 525.89 313.142 527.05C298.642 528.33 304.412 526.53 305.062 517.43C305.702 507.17 304.162 496 305.062 485.86C305.572 478.16 308.782 470.08 308.012 461.99C306.982 450.44 307.632 445.96 308.012 435.04C308.142 431.06 307.112 411.04 308.012 410.27C309.042 409.38 318.152 408.99 320.452 408.48C326.612 407.06 335.082 404.37 340.992 402.06C343.812 400.9 348.822 397.31 351.002 396.92C355.112 396.28 362.292 406.8 367.302 406.8C368.572 406.8 371.421 404.18 372.341 404.15C372.891 405.08 371.312 410.82 372.952 413.22C373.722 414.37 376.292 414.89 377.572 416.17C387.832 425.28 402.592 442.09 414.782 447.99C418.892 449.91 425.432 450.56 428.642 453.64C431.592 456.59 431.852 462.62 434.552 465.7C435.832 467.24 439.302 467.88 439.812 469.42C441.222 473.91 438.532 472.63 436.992 473.91L436.962 473.93Z" fill="#EFDDBE"/>
<path d="M277.841 487.4C279.381 469.57 273.731 442.11 271.811 422.99C271.421 418.88 273.731 412.6 269.371 410.42C263.591 407.6 249.091 407.85 245.121 403.87L244.991 404C243.841 402.85 242.681 396.17 239.471 395.27C236.261 394.24 236.261 398.99 235.621 399.64C234.591 400.66 229.841 398.1 227.541 398.1C222.281 398.35 217.921 405.54 214.071 408.62C194.821 424.41 175.831 440.44 157.091 456.61C154.141 459.18 148.621 462.26 145.931 464.82C140.921 469.7 148.111 471.62 150.421 473.8C181.211 503.83 219.071 516.02 260.651 525.52C263.861 524.49 276.431 528.6 277.841 527.06C278.101 526.8 277.711 522.44 278.101 520.64C278.611 518.45 280.411 515.89 280.541 514.09C281.181 506.9 277.071 496 277.841 487.4ZM199.191 485.09C198.161 485.35 192.521 483.55 192.521 483.55H192.651C191.881 482.91 192.391 476.75 194.831 476.11C200.221 474.69 204.321 483.68 199.201 485.09H199.191Z" fill="#EFDDBE"/>
<path d="M273.601 186.13C273.351 188.57 273.991 196.65 273.601 197.29L273.351 197.17C271.421 199.09 263.861 198.32 261.031 198.96C253.971 200.63 244.611 204.35 237.551 206.92C233.951 208.21 230.751 211.8 226.511 210.52C224.721 210 220.861 204.87 218.811 203.2C202.391 188.83 181.981 174.72 166.971 159.06C165.561 157.52 165.041 155.34 163.371 153.8C158.881 149.69 151.311 150.33 149.391 142.38C147.851 136.35 150.031 138.28 151.961 136.61C189.561 106.33 224.461 92.6002 272.711 87.8502C274.251 87.7202 276.041 86.1802 277.201 86.4402C280.541 87.0802 279.771 96.0602 279.511 99.1402C277.461 127.5 276.301 157.4 273.601 186.13Z" fill="#EFDDBE"/>
<path d="M436.192 143.36C435.032 145.8 428.752 147.72 427.212 150.8C425.032 149.26 429.402 144.9 427.982 143.23C427.982 143.23 424.392 142.2 424.262 142.2C420.412 142.07 404.882 153.49 411.432 157.6C412.202 158.11 419.512 158.63 415.922 161.32C415.672 161.45 413.742 161.45 412.202 162.73C408.482 165.69 409.382 167.99 407.842 170.43C406.552 172.22 403.352 171.58 401.042 172.61C393.982 175.82 390.142 184.16 381.532 187.62C379.092 188.52 374.992 187.62 374.092 190.7C373.572 192.76 374.472 195.45 373.322 197.37C372.552 198.4 366.902 201.35 365.112 202.63C363.052 204.04 358.822 210.07 356.002 207.77C355.752 207.64 359.342 203.53 355.232 201.74C351.892 200.33 352.282 206.88 351.512 207.65C350.102 209.19 332.772 202 329.052 200.85C324.812 199.57 314.812 198.67 312.502 196.49C309.802 193.92 311.342 187.12 310.962 183.02C308.392 156.2 305.052 129 303.392 102.06C303.392 99.62 302.882 86.79 303.392 86.27C304.422 85.25 308.532 87.56 310.192 87.69C319.432 88.59 327.512 89.23 336.752 91.15C341.122 92.05 369.352 99.23 369.352 102.06C369.352 102.57 362.292 109.76 368.582 111.81C375.002 113.87 370.372 101.8 370.892 101.29V101.41C372.812 99.49 385.002 107.83 387.832 109.24C404.632 117.71 415.542 127.33 430.302 135.67C434.542 137.98 439.792 136.06 436.212 143.37L436.192 143.36Z" fill="#EFDDBE"/>
<path d="M511.002 351.42C502.922 369.77 498.812 392.48 490.472 411.09C485.082 413.27 482.002 420.07 480.082 425.33C476.742 428.8 466.482 449.71 463.142 449.84C462.632 449.84 457.242 448.42 456.212 448.04C444.022 443.03 427.732 420.84 418.872 410.44C412.582 403.12 413.222 405.05 409.252 396.2C403.862 384.4 398.472 388.63 393.722 384.01C393.082 383.37 392.952 381.57 392.052 380.55C390.642 379.01 387.432 376.7 386.662 375.41C384.092 370.53 386.922 371.3 389.742 369.38C401.802 360.91 413.102 351.8 425.032 343.2C431.062 338.83 452.742 321.64 457.492 320.1C466.992 317.02 479.692 316.89 490.342 315.99C491.882 315.99 497.782 315.47 499.322 315.35C501.632 315.35 513.052 314.83 513.562 315.35L513.312 315.6C514.592 316.76 511.892 324.33 511.772 326.76C511.512 329.84 511.382 336 511.772 338.69C511.892 340.1 513.952 339.21 514.462 339.72C518.312 343.31 512.662 347.8 510.992 351.39L511.002 351.42Z" fill="#EFDDBE"/>
<path d="M189.822 381.2C181.612 391.34 171.081 400.19 162.751 409.68C152.101 421.61 141.701 433.68 131.181 445.61C130.031 446.89 130.032 448.82 129.512 449.2L129.382 448.94C129.382 448.94 124.122 449.33 123.732 448.94C123.352 448.56 123.482 447.15 122.842 446.25C100.382 414.69 78.3115 382.22 74.2115 341.93C73.5615 335.26 75.6215 330.13 75.7515 325.51C75.7515 323.2 73.4315 322.43 72.9215 320.89C70.2215 312.55 76.3915 317.17 80.8815 317.43C90.3715 318.07 117.451 317.17 124.121 320.64C128.101 322.69 134.002 329.37 137.852 329.37C139.652 329.37 141.702 326.67 142.982 330.4C143.632 332.32 142.732 333.99 144.652 336.3C146.322 338.36 151.842 340.92 154.532 342.97C157.742 345.54 171.852 357.98 174.042 358.11C180.202 358.36 176.602 356.18 183.792 360.16C185.722 361.19 188.932 361.06 189.572 363.37C190.082 365.04 189.572 367.22 189.962 369.02C191.372 374.15 198.042 371.2 189.832 381.21L189.822 381.2Z" fill="#EFDDBE"/>
<path d="M512.671 287.26C510.231 276.74 509.461 265.96 507.021 255.31C504.451 244.66 500.351 232.85 496.121 222.72C488.041 203.21 476.741 186.02 464.551 168.82C462.881 168.31 458.391 173.83 456.341 171.78C455.701 171.14 457.111 159.08 456.341 158.31V158.18C453.901 155.61 445.821 169.34 444.411 171.01C431.451 185.63 418.231 199.88 405.401 214.51C399.621 221.06 393.211 227.34 387.441 234.02L445.951 279.06C448.011 280.34 449.931 278.16 452.621 278.16C459.171 278.42 457.631 282.78 460.191 285.73C463.521 289.45 483.031 288.17 488.801 288.55C491.371 288.68 493.551 290.09 496.121 290.22C499.331 290.48 508.561 290.86 511.001 290.09C511.771 289.83 513.701 288.29 512.671 287.27V287.26ZM434.531 210.66C431.321 211.56 423.371 207.71 423.371 205.52C423.371 204.5 428.631 200.9 430.301 200.52V200.39C439.151 198.46 438.131 209.76 434.541 210.65L434.531 210.66Z" fill="#EFDDBE"/>
<path d="M188.031 226.58C185.071 223.24 182.001 217.85 179.051 214.52C165.831 199.64 151.461 186.04 138.501 171.15C136.831 169.23 131.441 160.24 130.291 159.86C128.491 159.22 124.771 163.58 123.491 164.99C99.3713 192.19 85.3813 228.25 75.8913 262.76C76.4013 266.87 71.4013 289.06 72.5513 290.22V290.09C73.0713 290.6 84.4813 290.22 86.7913 290.09C88.3313 289.96 89.8713 288.68 91.4113 288.68C103.211 287.65 115.281 287.91 126.951 285.34C147.871 271.1 167.371 254.68 188.031 240.05C189.951 238.64 194.961 237.35 195.471 235.43C196.761 231.32 190.721 229.53 188.031 226.58ZM99.4813 269.69C98.8413 273.15 93.5813 277.65 89.9913 276.62C86.2713 275.59 82.2913 267 84.6013 264.82H84.7313C84.8613 264.56 89.2213 263.15 89.8713 263.15C92.9513 262.76 100.131 266.23 99.4913 269.7L99.4813 269.69Z" fill="#EFDDBE"/>
<path d="M205.992 345.64C205.992 345.64 205.992 348.84 205.222 350.13C203.682 352.57 203.172 350.51 201.882 350.39C200.472 350.39 197.132 350.26 196.882 350.13C196.112 349.62 196.882 344.74 199.192 344.1C200.092 343.85 205.612 345.39 205.862 345.65H205.992V345.64Z" fill="#EFDDBE"/>
<path d="M340.581 258.68C303.881 218.51 232.152 244.95 227.282 298.459C226.762 303.979 227.532 325.15 230.612 328.99L230.742 328.87C231.262 329.51 233.572 329.38 234.342 330.54C235.492 332.08 235.112 338.24 236.782 341.57C244.862 357.99 271.812 372.75 289.772 374.16C292.342 374.29 294.012 372.62 295.802 372.62C312.092 371.85 323.002 369.66 336.222 359.15C343.022 353.63 346.872 347.22 351.882 340.41C353.292 338.49 357.142 336.17 357.652 334.25C358.172 332.32 357.532 330.14 357.912 328.47C364.712 299.73 360.481 280.48 340.591 258.67L340.581 258.68ZM285.142 245.21L288.092 248.16L284.372 251.88L281.422 248.93L285.142 245.21ZM308.242 340.42C296.692 344.91 277.062 343.76 269.232 332.98C267.182 330.28 268.082 326.69 267.692 326.31C266.532 325.28 262.302 327.21 259.482 320.28C256.022 311.81 257.172 298.47 261.022 290.26C265.772 279.87 280.912 268.32 292.592 269.22C295.032 269.34 307.222 271.659 308.112 272.549H307.992C309.012 273.579 308.882 276.92 310.042 278.07C313.762 281.92 319.412 283.07 323.252 285C326.722 286.79 330.312 297.699 330.692 301.549C332.492 317.199 322.992 334.65 308.232 340.43L308.242 340.42ZM341.352 308.21C341.092 308.46 335.572 308.46 335.322 308.21C332.882 305.77 338.402 297.689 341.352 300.769V300.64C341.612 301.03 341.612 307.96 341.352 308.21ZM338.402 294.739C339.292 293.959 342.892 296.149 342.892 297.049C342.892 301.149 336.092 297.049 338.402 294.739Z" fill="#EFDDBE"/>
<path d="M308.242 340.42C296.692 344.91 277.062 343.76 269.232 332.98C267.182 330.28 268.082 326.69 267.692 326.31C266.532 325.28 262.302 327.21 259.482 320.28C256.022 311.81 257.172 298.47 261.022 290.26C265.772 279.87 280.912 268.32 292.592 269.22C295.032 269.34 307.222 271.66 308.112 272.55H307.992C309.012 273.58 308.882 276.92 310.042 278.07C313.762 281.92 319.412 283.07 323.252 285C326.722 286.79 330.312 297.7 330.692 301.55C332.492 317.2 322.992 334.65 308.232 340.43L308.242 340.42Z" fill="#242021"/>
<path d="M372.291 404.13C372.291 404.13 372.311 404.16 372.321 404.17C372.351 404.17 372.381 404.17 372.401 404.18L372.291 404.12V404.13Z" fill="#242021"/>
</g>
<defs>
<clipPath id="clip0_2445_27">
<rect width="588" height="599" fill="white"/>
</clipPath>
</defs>
</svg>
